#Comment line ignore any data following # character 
#Hierarchical Translation and Rotation (.htr) file 
[Header]	
#Header keywords are followed by a single value 
FileType HTR		#Single word string
DataType HTRS		#Translation followed by rotation and scale data
FileVersion 1		#integer
NumSegments 84		#integer
NumFrames 2		#integer
DataFrameRate 30		#integer, data frame rate in this file
EulerRotationOrder ZYX
CalibrationUnits mm
RotationUnits Degrees
GlobalAxisofGravity Y
BoneLengthAxis Y
ScaleFactor 1.00
[SegmentNames&Hierarchy]
#CHILD	PARENT
MASTER GLOBAL
root MASTER
chest root
L_mid_tent01 root
R_mid_tent01 root
spine01 root
Bip01_Neck chest
L_humerus chest
R_humerus chest
weapon_bone chest
Bip01_Head Bip01_Neck
eye_left_bone Bip01_Head
eye_right_bone Bip01_Head
L_forearm L_humerus
L_front_hand L_forearm
L_weapon_bone L_forearm
L_front_hand01_01 L_front_hand
L_front_hand02_01 L_front_hand
L_front_hand03_01 L_front_hand
L_front_hand01_02 L_front_hand01_01
L_front_hand02_02 L_front_hand02_01
L_front_hand03_02 L_front_hand03_01
R_forearm R_humerus
R_front_hand R_forearm
R_weapon_bone R_forearm
R_front_hand01_01 R_front_hand
R_front_hand02_01 R_front_hand
R_front_hand03_01 R_front_hand
R_front_hand01_02 R_front_hand01_01
R_front_hand02_02 R_front_hand02_01
R_front_hand03_02 R_front_hand03_01
null_rope01_connect L_mid_tent01
Rope1_Seg01 null_rope01_connect
Rope1_Seg02 Rope1_Seg01
Rope1_Seg03 Rope1_Seg02
Rope1_Seg04 Rope1_Seg03
Rope1_Seg05 Rope1_Seg04
Rope1_Seg06 Rope1_Seg05
Rope1_Seg07 Rope1_Seg06
Rope1_Seg09 Rope1_Seg07
L_mid_hand01 Rope1_Seg09
L_mid_hand02 Rope1_Seg09
L_mid_hand03 Rope1_Seg09
null_rope02_connect R_mid_tent01
Rope2_Seg01 null_rope02_connect
Rope2_Seg02 Rope2_Seg01
Rope2_Seg03 Rope2_Seg02
Rope2_Seg04 Rope2_Seg03
Rope2_Seg05 Rope2_Seg04
Rope2_Seg06 Rope2_Seg05
Rope2_Seg07 Rope2_Seg06
Rope2_Seg09 Rope2_Seg07
R_mid_hand01 Rope2_Seg09
R_mid_hand02 Rope2_Seg09
R_mid_hand03 Rope2_Seg09
spine02 spine01
spine03 spine02
pelvis spine03
null_rope03_connect pelvis
null_rope04_connect pelvis
Rope3_Seg01 null_rope03_connect
Rope3_Seg02 Rope3_Seg01
Rope3_Seg03 Rope3_Seg02
Rope3_Seg04 Rope3_Seg03
Rope3_Seg05 Rope3_Seg04
Rope3_Seg06 Rope3_Seg05
Rope3_Seg07 Rope3_Seg06
Rope3_Seg08 Rope3_Seg07
Rope3_Seg09 Rope3_Seg08
R_rear_hand01 Rope3_Seg09
R_rear_hand02 Rope3_Seg09
R_rear_hand03 Rope3_Seg09
Rope4_Seg01 null_rope04_connect
Rope4_Seg02 Rope4_Seg01
Rope4_Seg03 Rope4_Seg02
Rope4_Seg04 Rope4_Seg03
Rope4_Seg05 Rope4_Seg04
Rope4_Seg06 Rope4_Seg05
Rope4_Seg07 Rope4_Seg06
Rope4_Seg08 Rope4_Seg07
Rope4_Seg09 Rope4_Seg08
L_rear_hand01 Rope4_Seg09
L_rear_hand02 Rope4_Seg09
L_rear_hand03 Rope4_Seg09
[BasePosition]
#SegmentName Tx, Ty, Tz, Rx, Ry, Rz, BoneLength
MASTER 0.000000 0.000000 0.000000 -90.000000 0.000000 0.000000 10.000000 
root 0.000000 0.000000 0.000000 0.000000 0.000000 0.000000 10.000000 
chest 0.000000 0.000000 0.000000 0.000000 0.000000 0.000000 10.000000 
L_mid_tent01 0.000000 0.000000 0.000000 0.000000 0.000000 0.000000 10.000000 
R_mid_tent01 0.000000 0.000000 0.000000 0.000000 0.000000 0.000000 10.000000 
spine01 0.000000 0.000000 0.000000 0.000000 0.000000 0.000000 10.000000 
Bip01_Neck 0.000000 0.000000 0.000000 0.000000 0.000000 0.000000 10.000000 
L_humerus 0.000000 0.000000 0.000000 0.000000 0.000000 0.000000 10.000000 
R_humerus 0.000000 0.000000 0.000000 0.000000 0.000000 0.000000 10.000000 
weapon_bone 0.000000 0.000000 0.000000 0.000000 0.000000 0.000000 10.000000 
Bip01_Head 0.000000 0.000000 0.000000 0.000000 0.000000 0.000000 10.000000 
eye_left_bone 0.000000 0.000000 0.000000 0.000000 0.000000 0.000000 10.000000 
eye_right_bone 0.000000 0.000000 0.000000 0.000000 0.000000 0.000000 10.000000 
L_forearm 0.000000 0.000000 0.000000 0.000000 0.000000 0.000000 10.000000 
L_front_hand 0.000000 0.000000 0.000000 0.000000 0.000000 0.000000 10.000000 
L_weapon_bone 0.000000 0.000000 0.000000 0.000000 0.000000 0.000000 10.000000 
L_front_hand01_01 0.000000 0.000000 0.000000 0.000000 0.000000 0.000000 10.000000 
L_front_hand02_01 0.000000 0.000000 0.000000 0.000000 0.000000 0.000000 10.000000 
L_front_hand03_01 0.000000 0.000000 0.000000 0.000000 0.000000 0.000000 10.000000 
L_front_hand01_02 0.000000 0.000000 0.000000 0.000000 0.000000 0.000000 10.000000 
L_front_hand02_02 0.000000 0.000000 0.000000 0.000000 0.000000 0.000000 10.000000 
L_front_hand03_02 0.000000 0.000000 0.000000 0.000000 0.000000 0.000000 10.000000 
R_forearm 0.000000 0.000000 0.000000 0.000000 0.000000 0.000000 10.000000 
R_front_hand 0.000000 0.000000 0.000000 0.000000 0.000000 0.000000 10.000000 
R_weapon_bone 0.000000 0.000000 0.000000 0.000000 0.000000 0.000000 10.000000 
R_front_hand01_01 0.000000 0.000000 0.000000 0.000000 0.000000 0.000000 10.000000 
R_front_hand02_01 0.000000 0.000000 0.000000 0.000000 0.000000 0.000000 10.000000 
R_front_hand03_01 0.000000 0.000000 0.000000 0.000000 0.000000 0.000000 10.000000 
R_front_hand01_02 0.000000 0.000000 0.000000 0.000000 0.000000 0.000000 10.000000 
R_front_hand02_02 0.000000 0.000000 0.000000 0.000000 0.000000 0.000000 10.000000 
R_front_hand03_02 0.000000 0.000000 0.000000 0.000000 0.000000 0.000000 10.000000 
null_rope01_connect 0.000000 0.000000 0.000000 0.000000 0.000000 0.000000 10.000000 
Rope1_Seg01 0.000000 0.000000 0.000000 0.000000 0.000000 0.000000 10.000000 
Rope1_Seg02 0.000000 0.000000 0.000000 0.000000 0.000000 0.000000 10.000000 
Rope1_Seg03 0.000000 0.000000 0.000000 0.000000 0.000000 0.000000 10.000000 
Rope1_Seg04 0.000000 0.000000 0.000000 0.000000 0.000000 0.000000 10.000000 
Rope1_Seg05 0.000000 0.000000 0.000000 0.000000 0.000000 0.000000 10.000000 
Rope1_Seg06 0.000000 0.000000 0.000000 0.000000 0.000000 0.000000 10.000000 
Rope1_Seg07 0.000000 0.000000 0.000000 0.000000 0.000000 0.000000 10.000000 
Rope1_Seg09 0.000000 0.000000 0.000000 0.000000 0.000000 0.000000 10.000000 
L_mid_hand01 0.000000 0.000000 0.000000 0.000000 0.000000 0.000000 10.000000 
L_mid_hand02 0.000000 0.000000 0.000000 0.000000 0.000000 0.000000 10.000000 
L_mid_hand03 0.000000 0.000000 0.000000 0.000000 0.000000 0.000000 10.000000 
null_rope02_connect 0.000000 0.000000 0.000000 0.000000 0.000000 0.000000 10.000000 
Rope2_Seg01 0.000000 0.000000 0.000000 0.000000 0.000000 0.000000 10.000000 
Rope2_Seg02 0.000000 0.000000 0.000000 0.000000 0.000000 0.000000 10.000000 
Rope2_Seg03 0.000000 0.000000 0.000000 0.000000 0.000000 0.000000 10.000000 
Rope2_Seg04 0.000000 0.000000 0.000000 0.000000 0.000000 0.000000 10.000000 
Rope2_Seg05 0.000000 0.000000 0.000000 0.000000 0.000000 0.000000 10.000000 
Rope2_Seg06 0.000000 0.000000 0.000000 0.000000 0.000000 0.000000 10.000000 
Rope2_Seg07 0.000000 0.000000 0.000000 0.000000 0.000000 0.000000 10.000000 
Rope2_Seg09 0.000000 0.000000 0.000000 0.000000 0.000000 0.000000 10.000000 
R_mid_hand01 0.000000 0.000000 0.000000 0.000000 0.000000 0.000000 10.000000 
R_mid_hand02 0.000000 0.000000 0.000000 0.000000 0.000000 0.000000 10.000000 
R_mid_hand03 0.000000 0.000000 0.000000 0.000000 0.000000 0.000000 10.000000 
spine02 0.000000 0.000000 0.000000 0.000000 0.000000 0.000000 10.000000 
spine03 0.000000 0.000000 0.000000 0.000000 0.000000 0.000000 10.000000 
pelvis 0.000000 0.000000 0.000000 0.000000 0.000000 0.000000 10.000000 
null_rope03_connect 0.000000 0.000000 0.000000 0.000000 0.000000 0.000000 10.000000 
null_rope04_connect 0.000000 0.000000 0.000000 0.000000 0.000000 0.000000 10.000000 
Rope3_Seg01 0.000000 0.000000 0.000000 0.000000 0.000000 0.000000 10.000000 
Rope3_Seg02 0.000000 0.000000 0.000000 0.000000 0.000000 0.000000 10.000000 
Rope3_Seg03 0.000000 0.000000 0.000000 0.000000 0.000000 0.000000 10.000000 
Rope3_Seg04 0.000000 0.000000 0.000000 0.000000 0.000000 0.000000 10.000000 
Rope3_Seg05 0.000000 0.000000 0.000000 0.000000 0.000000 0.000000 10.000000 
Rope3_Seg06 0.000000 0.000000 0.000000 0.000000 0.000000 0.000000 10.000000 
Rope3_Seg07 0.000000 0.000000 0.000000 0.000000 0.000000 0.000000 10.000000 
Rope3_Seg08 0.000000 0.000000 0.000000 0.000000 0.000000 0.000000 10.000000 
Rope3_Seg09 0.000000 0.000000 0.000000 0.000000 0.000000 0.000000 10.000000 
R_rear_hand01 0.000000 0.000000 0.000000 0.000000 0.000000 0.000000 10.000000 
R_rear_hand02 0.000000 0.000000 0.000000 0.000000 0.000000 0.000000 10.000000 
R_rear_hand03 0.000000 0.000000 0.000000 0.000000 0.000000 0.000000 10.000000 
Rope4_Seg01 0.000000 0.000000 0.000000 0.000000 0.000000 0.000000 10.000000 
Rope4_Seg02 0.000000 0.000000 0.000000 0.000000 0.000000 0.000000 10.000000 
Rope4_Seg03 0.000000 0.000000 0.000000 0.000000 0.000000 0.000000 10.000000 
Rope4_Seg04 0.000000 0.000000 0.000000 0.000000 0.000000 0.000000 10.000000 
Rope4_Seg05 0.000000 0.000000 0.000000 0.000000 0.000000 0.000000 10.000000 
Rope4_Seg06 0.000000 0.000000 0.000000 0.000000 0.000000 0.000000 10.000000 
Rope4_Seg07 0.000000 0.000000 0.000000 0.000000 0.000000 0.000000 10.000000 
Rope4_Seg08 0.000000 0.000000 0.000000 0.000000 0.000000 0.000000 10.000000 
Rope4_Seg09 0.000000 0.000000 0.000000 0.000000 0.000000 0.000000 10.000000 
L_rear_hand01 0.000000 0.000000 0.000000 0.000000 0.000000 0.000000 10.000000 
L_rear_hand02 0.000000 0.000000 0.000000 0.000000 0.000000 0.000000 10.000000 
L_rear_hand03 0.000000 0.000000 0.000000 0.000000 0.000000 0.000000 10.000000 
#Beginning of Data. Separated by tabs
#Fr	Tx	Ty	Tz	Rx	Ry	Rz	SF
[MASTER]
12 0.000000 0.000000 0.000000 0.001660 0.001660 0.001660 0.000000
13 0.000000 0.000000 0.000000 0.001660 0.001660 0.001660 0.000000
[root]
12 -30.486780 -76.914291 1515.583862 -108.467644 22.252750 -90.148972 1517.840454
13 -30.353785 -78.056297 1511.244141 -108.454842 22.092190 -90.090530 1513.562988
[chest]
12 -86.836617 -33.005978 -30.127249 3.088432 -8.864752 -179.883835 97.660858
13 -86.836617 -33.005978 -30.127249 3.489382 -8.951636 -179.679321 97.660858
[L_mid_tent01]
12 27.299522 22.177580 -249.918289 -9.190136 14.338619 67.538071 252.381180
13 27.299522 22.177580 -249.918289 -9.171584 15.121035 67.516525 252.381180
[R_mid_tent01]
12 23.228794 24.509907 226.238495 -176.089722 -13.938612 65.774109 228.744751
13 23.228794 24.509907 226.238495 -176.082428 -14.371975 65.743507 228.744751
[spine01]
12 -0.361383 -0.195265 0.000000 -0.000001 -0.000007 22.052340 0.410763
13 -0.361383 -0.195265 0.000000 -0.000001 -0.000007 22.052340 0.410763
[Bip01_Neck]
12 165.484543 71.581718 0.000119 175.896118 1.177290 24.871183 180.302734
13 165.484543 71.581718 0.000119 175.896118 1.177290 24.871181 180.302734
[L_humerus]
12 -13.983130 -135.272980 -120.471481 -168.517593 36.033752 -113.483017 181.680161
13 -13.983130 -135.272980 -120.471481 -168.517593 36.033756 -113.483017 181.680161
[R_humerus]
12 -13.983309 -135.273102 125.287651 -179.620148 -19.552538 -121.963249 184.909012
13 -13.983309 -135.273102 125.287651 -179.588654 -28.895105 -122.030495 184.909012
[weapon_bone]
12 235.964890 -300.705902 0.000000 0.000000 -89.951546 -128.212341 382.234833
13 235.964890 -300.705902 0.000000 0.000000 -89.951546 -128.212341 382.234833
[Bip01_Head]
12 189.519958 179.130234 22.124876 -22.082390 5.585783 14.109813 261.715424
13 189.519958 179.130234 22.124878 -22.333828 5.622466 14.208736 261.715424
[eye_left_bone]
12 -24.626970 125.451866 -64.772606 0.000000 -90.000000 -99.840431 143.318359
13 -24.626970 125.451866 -64.772606 0.000000 -90.000000 -99.840431 143.318359
[eye_right_bone]
12 -24.626970 125.451866 64.327362 0.000000 -89.965736 80.156380 143.117676
13 -24.626970 125.451866 64.327362 0.000000 -89.980217 80.156380 143.117676
[L_forearm]
12 322.776093 0.000000 -0.000119 0.000017 0.002347 -89.149834 322.776093
13 322.776093 0.000000 -0.000119 0.000017 0.002347 -89.149834 322.776093
[L_front_hand]
12 241.149185 -0.042021 -3.300071 -47.595905 -2.244562 -0.019164 241.171753
13 241.149185 -0.042021 -3.300071 -52.008106 -2.242769 -0.021223 241.171753
[L_weapon_bone]
12 156.183838 0.000000 0.000000 0.000014 0.000007 0.000001 156.183838
13 156.183838 0.000000 0.000000 0.000014 0.000007 0.000001 156.183838
[L_front_hand01_01]
12 86.095154 20.947098 -0.655860 -0.366594 -0.477154 75.385574 88.609184
13 86.095154 20.947098 -0.655860 -0.366594 -0.477154 75.385574 88.609184
[L_front_hand02_01]
12 86.935165 -11.437475 24.513514 154.399796 -59.883835 -61.369587 91.046425
13 86.935165 -11.437475 24.513514 154.399796 -59.883835 -61.369587 91.046425
[L_front_hand03_01]
12 86.637497 -14.123976 -20.424902 -153.913849 58.118122 -62.702866 90.126129
13 86.637497 -14.123976 -20.424902 -153.913849 58.118122 -62.702866 90.126129
[L_front_hand01_02]
12 71.020905 -0.000179 0.000030 0.000334 -0.002323 -106.379684 71.020905
13 71.020905 -0.000179 0.000030 0.000334 -0.002323 -106.379684 71.020905
[L_front_hand02_02]
12 71.020927 -0.000119 0.000060 0.000334 -0.002323 -106.379684 71.020927
13 71.020927 -0.000119 0.000060 0.000334 -0.002323 -106.379684 71.020927
[L_front_hand03_02]
12 71.020905 -0.000060 0.000060 0.000334 -0.002323 -106.379684 71.020905
13 71.020905 -0.000060 0.000060 0.000334 -0.002323 -106.379684 71.020905
[R_forearm]
12 322.776428 -0.000060 0.000030 0.213197 0.007525 -93.425262 322.776428
13 322.776428 -0.000060 0.000030 0.213197 0.007525 -93.425262 322.776428
[R_front_hand]
12 238.847015 -0.006795 2.210259 -0.270529 1.703932 2.322530 238.857239
13 238.847015 -0.006795 2.210259 -0.270529 1.703932 2.322531 238.857239
[R_weapon_bone]
12 155.664093 0.002503 -0.000030 0.003487 0.001180 -90.988930 155.664078
13 155.664093 0.002503 -0.000030 0.003487 0.001180 -90.988930 155.664078
[R_front_hand01_01]
12 87.624611 14.231146 22.918642 -154.633484 -59.950619 61.746037 91.683487
13 87.624611 14.231146 22.918642 -154.633514 -59.950626 61.746063 91.683487
[R_front_hand02_01]
12 89.356956 14.367283 -19.491137 154.602661 58.302849 63.744389 92.579636
13 89.356956 14.367283 -19.491137 154.602661 58.302849 63.744381 92.579636
[R_front_hand03_01]
12 87.286232 -22.307278 -0.143439 0.162155 -0.423168 -75.767906 90.091743
13 87.286232 -22.307278 -0.143439 0.162155 -0.423168 -75.767921 90.091743
[R_front_hand01_02]
12 71.020905 0.000060 0.000119 0.002323 -0.000334 106.381714 71.020905
13 71.020905 0.000060 0.000119 0.002323 -0.000334 106.381714 71.020905
[R_front_hand02_02]
12 71.020844 -0.000030 -0.000119 0.002323 -0.000334 106.381714 71.020836
13 71.020844 -0.000030 -0.000119 0.002323 -0.000334 106.381714 71.020836
[R_front_hand03_02]
12 71.020905 0.000000 0.000030 0.002323 -0.000334 106.381714 71.020905
13 71.020905 0.000000 0.000030 0.002323 -0.000334 106.381714 71.020905
[null_rope01_connect]
12 328.732483 0.000000 -0.000238 152.556778 -54.782310 -154.069229 328.732483
13 328.732483 0.000000 -0.000238 153.254456 -54.085709 -154.581406 328.732483
[Rope1_Seg01]
12 0.000000 0.000000 0.000000 158.340424 55.964710 -169.935074 0.000000
13 0.000000 0.000000 0.000000 159.088806 56.432922 -169.587631 0.000000
[Rope1_Seg02]
12 139.999863 -0.000179 0.000000 12.017515 -5.696826 -10.934118 139.999863
13 139.999863 -0.000179 0.000000 12.204561 -6.021572 -10.921602 139.999863
[Rope1_Seg03]
12 139.999924 0.000060 -0.000060 18.104254 -10.975748 -12.614241 139.999924
13 139.999924 0.000060 -0.000060 18.112940 -11.437758 -12.537058 139.999924
[Rope1_Seg04]
12 139.999924 -0.000060 -0.000119 19.657566 -20.190754 -10.609384 139.999924
13 139.999924 -0.000060 -0.000119 19.214621 -20.727980 -10.332325 139.999924
[Rope1_Seg05]
12 139.999832 0.000119 -0.000060 0.331168 3.670221 -5.016759 139.999832
13 139.999832 0.000119 -0.000060 0.499706 3.280830 -4.913519 139.999832
[Rope1_Seg06]
12 139.999954 0.000119 -0.000060 -10.532771 14.619743 -4.798529 139.999954
13 139.999954 0.000119 -0.000060 -10.014452 14.732421 -4.960954 139.999954
[Rope1_Seg07]
12 139.999985 0.000060 0.000000 -4.531278 5.199533 -1.665849 139.999985
13 139.999985 0.000060 0.000000 -4.329424 5.287482 -1.768961 139.999985
[Rope1_Seg09]
12 121.602913 0.000119 -0.000089 -89.793175 -1.359789 0.847147 121.602913
13 121.602913 0.000119 -0.000089 -89.793175 -1.359789 0.847147 121.602913
[L_mid_hand01]
12 103.859421 1.038730 8.195221 106.855484 -31.239275 -9.461397 104.187431
13 103.859421 1.038730 8.195221 106.855484 -31.239275 -9.461397 104.187431
[L_mid_hand02]
12 105.572853 -4.139662 -10.864139 -142.331345 25.752670 -28.774628 106.211075
13 105.572853 -4.139662 -10.864139 -142.331345 25.752670 -28.774628 106.211075
[L_mid_hand03]
12 104.641464 17.579376 -3.913581 -16.122810 9.734291 34.223598 106.179977
13 104.641464 17.579376 -3.913581 -16.122810 9.734291 34.223598 106.179977
[null_rope02_connect]
12 328.732849 0.000179 -0.000119 -47.878902 85.480484 130.967178 328.732849
13 328.732849 0.000179 -0.000119 -52.624882 85.711479 126.070839 328.732849
[Rope2_Seg01]
12 0.000076 0.000110 0.000153 56.723862 83.650162 170.921371 0.000203
13 0.000076 0.000110 0.000153 55.964653 84.228104 170.065155 0.000203
[Rope2_Seg02]
12 139.999741 -0.000060 -0.000119 -2.482463 11.305088 5.058582 139.999756
13 139.999741 -0.000060 -0.000119 -2.587181 11.304063 5.209249 139.999756
[Rope2_Seg03]
12 140.000107 0.000030 0.000000 -5.142557 13.254510 6.999834 140.000107
13 140.000107 0.000030 0.000000 -5.160794 12.928674 7.045120 140.000107
[Rope2_Seg04]
12 139.999802 0.000000 -0.000060 -7.303331 11.591621 7.547717 139.999802
13 139.999802 0.000000 -0.000060 -7.222383 11.298925 7.584588 139.999802
[Rope2_Seg05]
12 139.999985 -0.000060 0.000119 -3.014631 3.945117 2.397927 139.999985
13 139.999985 -0.000060 0.000119 -3.384192 4.311645 2.785933 139.999985
[Rope2_Seg06]
12 139.999893 -0.000030 -0.000119 -2.235175 2.484558 1.731218 139.999893
13 139.999893 -0.000030 -0.000119 -2.432304 2.635258 1.923440 139.999893
[Rope2_Seg07]
12 139.999893 0.000060 -0.000060 -2.001892 1.888122 1.577780 139.999893
13 139.999893 0.000060 -0.000060 -2.152761 1.971138 1.733364 139.999893
[Rope2_Seg09]
12 121.338966 0.000089 -0.000060 33.793236 -1.359788 -0.847141 121.338966
13 121.338966 0.000089 -0.000060 33.793236 -1.359788 -0.847141 121.338966
[R_mid_hand01]
12 104.680779 11.144459 -10.335981 -41.523792 25.424656 28.595957 105.778534
13 104.680779 11.144459 -10.335981 -41.523792 25.424656 28.595957 105.778534
[R_mid_hand02]
12 104.070427 2.443552 8.231699 72.847389 -32.746803 10.013901 104.424065
13 104.070427 2.443552 8.231699 72.847389 -32.746803 10.013901 104.424065
[R_mid_hand03]
12 106.028137 -11.221827 -5.996406 -167.901306 10.259192 -37.009720 106.788818
13 106.028137 -11.221827 -5.996406 -167.901306 10.259192 -37.009720 106.788818
[spine02]
12 129.756927 0.001550 0.000119 -0.245322 -4.052059 -4.355546 129.756927
13 129.756927 0.001550 0.000119 -0.245322 -4.052060 -4.355547 129.756927
[spine03]
12 78.613846 0.087372 -4.898873 0.207412 -2.089717 -0.432471 78.766380
13 78.613846 0.087372 -4.898873 0.207412 -2.089717 -0.432471 78.766380
[pelvis]
12 169.435242 0.051022 0.000000 -0.010007 -0.191417 -1.897554 169.435257
13 169.435242 0.051022 0.000000 -0.010007 -0.191417 -1.897554 169.435257
[null_rope03_connect]
12 -1.257226 -2.466202 137.391083 137.729156 -72.463127 -86.354446 137.418976
13 -1.257226 -2.466202 137.391083 137.744019 -72.433655 -86.199997 137.418976
[null_rope04_connect]
12 -1.259640 -2.480268 -137.844437 137.729156 -72.463127 -86.354446 137.872513
13 -1.259640 -2.480268 -137.844437 137.744019 -72.433655 -86.199997 137.872513
[Rope3_Seg01]
12 0.000000 0.000000 0.000000 -172.904984 66.543915 -112.188622 0.000000
13 0.000000 0.000000 0.000000 -170.596191 66.949020 -109.701088 0.000000
[Rope3_Seg02]
12 139.999924 -0.000119 0.000060 7.040235 12.597406 -5.509526 139.999924
13 139.999924 -0.000119 0.000060 6.561093 12.267243 -5.593201 139.999924
[Rope3_Seg03]
12 139.999924 -0.000119 0.000119 11.524155 19.458595 -5.266914 139.999924
13 139.999924 -0.000119 0.000119 10.854399 19.321377 -5.370542 139.999924
[Rope3_Seg04]
12 139.999924 0.000119 0.000000 1.478363 -1.984489 -7.404780 139.999924
13 139.999924 0.000119 0.000000 1.182033 -2.387503 -7.161192 139.999924
[Rope3_Seg05]
12 139.999924 -0.000238 0.000060 -4.382811 -22.894344 -4.363832 139.999924
13 139.999924 -0.000238 0.000060 -4.187058 -22.908882 -3.978219 139.999924
[Rope3_Seg06]
12 139.999893 -0.000119 -0.000060 0.102456 -9.009736 -3.420087 139.999893
13 139.999893 -0.000119 -0.000060 0.150440 -8.849238 -3.140423 139.999893
[Rope3_Seg07]
12 139.999771 0.000060 -0.000119 0.622221 -5.297855 -2.174361 139.999771
13 139.999771 0.000060 -0.000119 0.641845 -5.210886 -1.989846 139.999771
[Rope3_Seg08]
12 139.999985 -0.000060 0.000000 0.703779 -3.131818 -1.249562 139.999985
13 139.999985 -0.000060 0.000000 0.711906 -3.084541 -1.142276 139.999985
[Rope3_Seg09]
12 90.185997 -0.000179 -0.000060 89.793228 -1.359877 -0.847183 90.185997
13 90.185997 -0.000179 -0.000060 89.793228 -1.359877 -0.847183 90.185997
[R_rear_hand01]
12 103.366196 -6.073594 -10.757982 -161.551193 16.666374 -30.088671 104.101845
13 103.366196 -6.073594 -10.757982 -161.551193 16.666374 -30.088671 104.101845
[R_rear_hand02]
12 100.509819 12.039542 -7.992327 -34.280552 19.289745 28.875523 101.543350
13 100.509819 12.039542 -7.992327 -34.280552 19.289745 28.875523 101.543350
[R_rear_hand03]
12 101.539970 5.215704 5.435467 83.366440 -30.933914 7.284830 101.819031
13 101.539970 5.215704 5.435467 83.366440 -30.933914 7.284830 101.819031
[Rope4_Seg01]
12 0.000010 0.000038 -0.000114 -5.704589 70.644424 -169.884064 0.000121
13 0.000010 0.000038 -0.000114 -4.957810 71.107941 -169.094437 0.000121
[Rope4_Seg02]
12 139.999985 0.000060 0.000119 -0.059405 -2.644583 10.078246 139.999985
13 139.999985 0.000060 0.000119 -0.146926 -2.507705 10.015268 139.999985
[Rope4_Seg03]
12 139.999924 0.000000 -0.000238 -0.817964 -3.991393 13.449870 139.999924
13 139.999924 0.000000 -0.000238 -0.950888 -3.836629 13.355534 139.999924
[Rope4_Seg04]
12 139.999985 0.000000 0.000119 -1.863754 -5.338989 15.890005 139.999985
13 139.999985 0.000000 0.000119 -2.016810 -5.110116 15.682096 139.999985
[Rope4_Seg05]
12 139.999802 -0.000060 -0.000119 0.351782 4.390488 -0.291716 139.999802
13 139.999802 -0.000060 -0.000119 0.377786 4.350859 -0.261151 139.999802
[Rope4_Seg06]
12 139.999924 0.000000 0.000060 1.206995 6.483129 -4.759008 139.999924
13 139.999924 0.000000 0.000060 1.238280 6.179287 -4.360734 139.999924
[Rope4_Seg07]
12 139.999802 0.000000 0.000000 0.769970 3.517359 -1.246395 139.999802
13 139.999802 0.000000 0.000000 0.743930 3.359172 -1.066740 139.999802
[Rope4_Seg08]
12 139.999924 0.000000 0.000119 -0.924553 2.437873 -0.905180 139.999924
13 139.999924 0.000000 0.000119 -0.944068 2.339873 -0.769552 139.999924
[Rope4_Seg09]
12 90.185791 0.000060 0.000060 -135.617828 2.228885 0.850567 90.185791
13 90.185791 0.000060 0.000060 -135.617828 2.228885 0.850567 90.185791
[L_rear_hand01]
12 101.696655 -8.392275 -7.654577 -34.454281 -18.946800 151.655121 102.329041
13 101.696655 -8.392275 -7.654577 -34.454281 -18.946800 151.655121 102.329041
[L_rear_hand02]
12 102.726799 -1.568258 5.773216 83.407906 30.330435 172.796509 102.900848
13 102.726799 -1.568258 5.773216 83.407906 30.330435 172.796509 102.900848
[L_rear_hand03]
12 104.552910 9.721220 -10.420293 -161.379868 -16.473232 -150.512238 105.519653
13 104.552910 9.721220 -10.420293 -161.379868 -16.473232 -150.512238 105.519653
